# xmcd
#
# Track frame offsets: 
#        150
#        14130
#        31120
#        49665
#        68245
#        76826
#        96031
#        130261
#        148076
#        165782
#        199601
#        214351
#        233906
#
# Disc length: 3339 seconds
#
# Revision: 0
# Processed by: cddbd v1.5.2PL0 Copyright (c) Steve Scherf et al.
# Submitted via: ExactAudioCopyFreeDBPlugin 1.0
#
DISCID=ac0d090d
DTITLE=Sauce Boss - Live At The Green Parrot
DYEAR=2012
DGENRE=Blues
TTITLE0=Killer Tone
TTITLE1=Smuggler's Cove
TTITLE2=Gumbo Recipe
TTITLE3=Lonesome Rider
TTITLE4=Chicken In The Gumbo
TTITLE5=What Was I Thinking
TTITLE6=Out In The Night
TTITLE7=I Can't Sit Down
TTITLE8=Lucky Charm
TTITLE9=Let The Big Dog Eat
TTITLE10=The Goog
TTITLE11=Paco's Garden
TTITLE12=Cathead Biscuit Gospel
EXTD=
EXTT0=
EXTT1=
EXTT2=
EXTT3=
EXTT4=
EXTT5=
EXTT6=
EXTT7=
EXTT8=
EXTT9=
EXTT10=
EXTT11=
EXTT12=
PLAYORDER=
